<?xml version="1.0" encoding="UTF-8" standalone="no"?>
<svg width="300px" height="300px" viewBox="0 0 300 300" version="1.1" xmlns="http://www.w3.org/2000/svg" xmlns:xlink="http://www.w3.org/1999/xlink" xmlns:sketch="http://www.bohemiancoding.com/sketch/ns">
    <!-- Generator: Sketch 3.3.3 (12081) - http://www.bohemiancoding.com/sketch -->
    <title>Artboard 6</title>
    <desc>Created with Sketch.</desc>
    <defs></defs>
    <g id="Page-1" stroke="none" stroke-width="1" fill="none" fill-rule="evenodd" sketch:type="MSPage">
        <g id="Artboard-6" sketch:type="MSArtboardGroup" transform="translate(-498.000000, -816.000000)" fill="#3B7CCA">
            <g id="business31-+-Oval-50-Copy" sketch:type="MSLayerGroup" transform="translate(539.000000, 857.000000)">
                <g id="business31" transform="translate(49.064815, 20.000000)" sketch:type="MSShapeGroup">
                    <path d="M71.8680218,113.25227 C71.8680218,119.43127 66.8501714,124.445022 60.682162,124.445022 C54.4916004,124.445022 49.4699913,119.43127 49.4699913,113.25227 C49.4699913,107.092034 54.4916004,102.078281 60.682162,102.078281 C66.8501714,102.078281 71.8680218,107.092034 71.8680218,113.25227 L71.8680218,113.25227 Z M76.6753856,142.693056 C76.6753856,133.872079 69.4887714,126.719225 60.682162,126.719225 C51.8210516,126.719225 44.6682655,133.879584 44.6682655,142.693056 L44.6682655,142.693056 L44.6682655,166.187517 L76.6847823,166.187517 L76.6847823,142.693056 L76.6753856,142.693056 L76.6753856,142.693056 Z M104.643794,102.078281 C98.4551117,102.078281 93.4335026,107.092034 93.4335026,113.25227 C93.4335026,119.43127 98.4551117,124.445022 104.643794,124.445022 C110.813683,124.445022 115.835292,119.43127 115.835292,113.25227 C115.835292,107.092034 110.813683,102.078281 104.643794,102.078281 L104.643794,102.078281 Z M120.640776,142.693056 C120.640776,133.872079 113.4598,126.719225 104.641915,126.719225 C95.8052356,126.719225 88.6524496,133.879584 88.6524496,142.693056 L88.6524496,142.693056 L88.6524496,166.187517 L120.650173,166.187517 L120.650173,142.693056 L120.640776,142.693056 L120.640776,142.693056 Z M16.7054953,102.078281 C10.5168131,102.078281 5.49520399,107.092034 5.49520399,113.25227 C5.49520399,119.43127 10.5168131,124.445022 16.7054953,124.445022 C22.875384,124.445022 27.8763204,119.43127 27.8763204,113.25227 C27.8857171,107.092034 22.8847808,102.078281 16.7054953,102.078281 L16.7054953,102.078281 Z M32.6893222,142.693056 C32.6893222,133.872079 25.5271395,126.719225 16.7054953,126.719225 C7.85941966,126.719225 0.69159886,133.872079 0.69159886,142.693056 L0.69159886,142.693056 L0.69159886,166.187517 L32.6874429,166.187517 L32.6874429,142.693056 L32.6893222,142.693056 L32.6893222,142.693056 Z M60.682162,0 C53.5387726,0 47.7391148,5.79058427 47.7391148,12.9227978 C47.7391148,20.058764 53.5387726,25.8512247 60.682162,25.8512247 C67.8255513,25.8512247 73.5988983,20.0606404 73.5988983,12.9227978 C73.5988983,5.79058427 67.8142752,0 60.682162,0 L60.682162,0 Z M79.1467239,46.2833933 C79.1467239,36.1057753 70.8757278,27.8383371 60.6708859,27.8383371 C50.4585266,27.8383371 42.1856511,36.0963933 42.1856511,46.2833933 L42.1856511,46.2833933 L42.1856511,73.4162022 L79.1467239,73.4162022 L79.1467239,46.2833933 L79.1467239,46.2833933 L79.1467239,46.2833933 Z M61.6688179,86.9075506 L61.6688179,78.8183708 L59.6635571,78.8183708 L59.6635571,86.9075506 L15.6774937,86.9075506 L15.6774937,98.5224944 L17.6827546,98.5224944 L17.6827546,88.9171798 L59.6635571,88.9171798 L59.6635571,98.5224944 L61.6688179,98.5224944 L61.6688179,88.9171798 L103.630827,88.9171798 L103.630827,98.5224944 L105.634209,98.5224944 L105.634209,86.9075506 L61.6688179,86.9075506 L61.6688179,86.9075506 Z" id="Shape"></path>
                </g>
            </g>
        </g>
    </g>
</svg>