<?xml version="1.0" encoding="UTF-8" standalone="no"?>
<svg width="300px" height="300px" viewBox="0 0 300 300" version="1.1" xmlns="http://www.w3.org/2000/svg" xmlns:xlink="http://www.w3.org/1999/xlink" xmlns:sketch="http://www.bohemiancoding.com/sketch/ns">
    <!-- Generator: Sketch 3.3.3 (12081) - http://www.bohemiancoding.com/sketch -->
    <title>Artboard 6</title>
    <desc>Created with Sketch.</desc>
    <defs></defs>
    <g id="Page-1" stroke="none" stroke-width="1" fill="none" fill-rule="evenodd" sketch:type="MSPage">
        <g id="Artboard-6" sketch:type="MSArtboardGroup" transform="translate(-37.000000, -428.000000)" fill="#F7941E">
            <g id="world90-+-Oval-50" sketch:type="MSLayerGroup" transform="translate(78.000000, 469.000000)">
                <g id="world90" transform="translate(28.500000, 26.500000)" sketch:type="MSShapeGroup">
                    <g id="Group">
                        <path d="M37.477875,81.861625 C37.477875,81.861625 66.43925,53.0335 66.43925,28.9665 C66.43925,12.96625 53.473,0 37.477875,0 C21.48275,0 8.5165,12.96625 8.5165,28.9665 C8.5165,54.39675 37.477875,81.861625 37.477875,81.861625 L37.477875,81.861625 Z M22.38475,28.9665 C22.38475,20.623 29.144625,13.86825 37.477875,13.86825 C45.811125,13.86825 52.571,20.623 52.571,28.9665 C52.571,37.29975 45.811125,44.0545 37.477875,44.0545 C29.144625,44.0545 22.38475,37.29975 22.38475,28.9665 L22.38475,28.9665 Z" id="Shape"></path>
                        <path d="M144.52375,39.170375 L142.171375,39.918625 L129.5895,41.041 L126.043,46.70925 L123.475375,45.88925 L113.46625,36.86925 L112.005625,32.179875 L110.0735,27.17275 L103.774875,21.525 L96.364125,20.074625 L96.189875,23.4725 L103.457125,30.5655 L107.013875,34.752625 L103.006125,36.843625 L99.746625,35.880125 L94.87275,33.850625 L95.041875,29.9095 L88.635625,27.27525 L86.50875,36.52075 L80.0615,37.9865 L80.702125,43.147375 L89.096875,44.766875 L90.552375,36.52075 L97.4865,37.550875 L100.710125,39.436875 L105.8915,39.436875 L109.42775,46.529875 L118.821875,56.05725 L118.135125,59.762625 L110.560375,58.794 L97.47625,65.400125 L88.0565,76.70075 L86.831625,81.70275 L83.444,81.70275 L77.145375,78.802 L71.026125,81.70275 L72.54825,88.165375 L75.21325,85.080125 L79.892375,84.94175 L79.564375,90.74325 L83.444,91.87075 L87.3185,96.227 L93.64275,94.448625 L100.869,95.586375 L109.2535,97.8465 L113.450875,98.333375 L120.543875,106.395 L134.25325,114.46175 L125.392125,131.405 L116.033875,135.756125 L112.48225,145.43725 L98.936875,154.482875 L97.491625,159.70525 C132.10075,151.366875 157.859,120.278625 157.859,83.0865 C157.86925,66.81975 152.94925,51.71125 144.52375,39.170375 L144.52375,39.170375 Z" id="Shape"></path>
                        <path d="M88.061625,124.296625 L82.321625,113.646875 L87.590125,102.648625 L82.321625,101.05475 L76.397125,95.114875 L63.277125,92.17825 L58.920875,83.060875 L58.920875,88.478 L56.999,88.478 L48.670875,77.187625 C44.60675,82.05125 41.5215,85.157 41.137125,85.53625 L37.565,89.093 L33.910875,85.623375 C32.973,84.721375 16.188625,68.634 7.89125,49.082125 C2.9405,59.37825 0.10125,70.873625 0.10125,83.060875 C0.10125,126.633625 35.417625,161.965375 78.990375,161.965375 C82.342125,161.965375 85.632375,161.67325 88.88675,161.2735 L88.061625,151.7205 C88.061625,151.7205 91.685,137.52425 91.685,137.047625 C91.685,136.56075 88.061625,124.296625 88.061625,124.296625 L88.061625,124.296625 Z" id="Shape"></path>
                        <path d="M72.75325,19.311 L78.559875,20.269375 L92.653625,18.947125 L96.528125,14.672875 L102.001625,11.013625 L109.750625,12.182125 L112.5745,11.75675 C102.370625,6.954625 91.013625,4.176875 78.990375,4.176875 C73.373375,4.176875 67.920375,4.832875 62.6365,5.945 C66.741625,10.429375 69.693625,15.97975 70.94925,22.155375 L72.75325,19.311 L72.75325,19.311 Z M82.321625,12.007875 L90.38325,7.57475 L95.554375,10.5575 L88.061625,16.261625 L80.917375,16.98425 L77.69375,14.898375 L82.321625,12.007875 L82.321625,12.007875 Z" id="Shape"></path>
                    </g>
                </g>
            </g>
        </g>
    </g>
</svg>