<?xml version="1.0" encoding="UTF-8" standalone="no"?>
<svg width="300px" height="300px" viewBox="0 0 300 300" version="1.1" xmlns="http://www.w3.org/2000/svg" xmlns:xlink="http://www.w3.org/1999/xlink" xmlns:sketch="http://www.bohemiancoding.com/sketch/ns">
    <!-- Generator: Sketch 3.3.3 (12081) - http://www.bohemiancoding.com/sketch -->
    <title>Artboard 6</title>
    <desc>Created with Sketch.</desc>
    <defs></defs>
    <g id="Page-1" stroke="none" stroke-width="1" fill="none" fill-rule="evenodd" sketch:type="MSPage">
        <g id="Artboard-6" sketch:type="MSArtboardGroup" transform="translate(-498.000000, -40.000000)">
            <g id="payment7-+-males4-+-worker5-+-Oval-50-Copy-3" sketch:type="MSLayerGroup" transform="translate(527.000000, 72.000000)">
                <g id="payment7" transform="translate(114.853193, 108.874407) rotate(-25.000000) translate(-114.853193, -108.874407) translate(24.353193, 31.374407)" fill="#3B7CCA" sketch:type="MSShapeGroup">
                    <g id="Layer_5_58_" transform="translate(1.000000, 1.000000)">
                        <g id="Group" transform="translate(0.000000, 1.000000)">
                            <g transform="translate(121.222016, 57.835465) rotate(21.000000) translate(-121.222016, -57.835465) translate(76.722016, 13.335465)" id="Shape">
                                <path d="M46.3574245,41.0256527 C41.3648257,39.0236431 39.9224252,37.8130161 39.9224252,35.6268215 C39.9224252,33.8773006 41.2470979,31.8333666 44.9818934,31.8333666 C48.2853343,31.8333666 50.8188357,33.1363215 50.8414394,33.147627 C51.1079751,33.2898875 51.4070036,33.3657283 51.7032066,33.3657283 C52.4260551,33.3657283 53.0655523,32.9281125 53.3306752,32.2507267 L54.2381207,29.9302797 C54.5541021,29.0847251 54.0747146,28.3479855 53.4634721,28.0837203 C51.4296073,27.1981254 47.4546472,26.5127315 47.4141489,26.5056656 C47.350105,26.4943601 47.1273641,26.446783 47.1273641,26.1862862 L47.1146495,22.8200836 C47.1146495,21.8063601 46.2684223,20.9810611 45.2295926,20.9810611 L43.6016531,20.9810611 C42.5637652,20.9810611 41.7180089,21.8058891 41.7180089,22.8205547 L41.7222471,26.3596367 C41.7222471,26.6309678 41.4283987,26.7487331 41.3210309,26.7736994 C36.3034738,27.9692524 33.1676772,31.6458842 33.1676772,36.2834807 C33.1676772,42.0648135 37.9450697,44.6773183 43.1034292,46.6383457 C47.2271972,48.2578537 48.9092914,49.8999727 48.9092914,52.308508 C48.9092914,54.929492 46.5269525,56.7600354 43.1137893,56.7600354 C40.1993208,56.7600354 36.25497,54.9120627 36.2158844,54.8932203 C35.9634761,54.7735707 35.6959986,54.7132749 35.4209865,54.7132749 C34.6703543,54.7132749 34.0167298,55.1673778 33.7553742,55.870672 L32.8888979,58.2174984 C32.5809221,59.093672 33.0551295,59.8049743 33.6621338,60.1215273 C36.0845002,61.3835 40.7719487,62.1230659 40.9805623,62.1555691 C41.0366007,62.1635772 41.3219728,62.2639132 41.3219728,62.524881 L41.3219728,66.048418 C41.3219728,67.0621415 42.1681999,67.8874405 43.2075006,67.8874405 L44.8895948,67.8874405 C45.9293664,67.8874405 46.7755935,67.0626125 46.7755935,66.048418 L46.7755935,62.3402251 C46.7755935,61.9935241 47.0312982,61.9629051 47.0840402,61.9501865 C52.4293514,60.7489807 55.7219614,56.8368183 55.7219614,51.9245932 C55.7205487,46.8790579 52.9195698,43.6188441 46.3574245,41.0256527 L46.3574245,41.0256527 Z"></path>
                                <path d="M44.2557485,0.239770096 C19.8550221,0.239770096 0.0758166773,20.0266913 0.0758166773,44.4337797 C0.0758166773,68.8413392 19.8550221,88.6287315 44.2557485,88.6287315 C68.6555331,88.6287315 88.4352095,68.8413392 88.4352095,44.4337797 C88.4352095,20.0266913 68.6555331,0.239770096 44.2557485,0.239770096 L44.2557485,0.239770096 Z M44.2557485,78.3864502 C25.5097219,78.3864502 10.3143645,63.1848376 10.3143645,44.4342508 C10.3143645,25.683664 25.5097219,10.4825225 44.2557485,10.4825225 C63.0008334,10.4825225 78.1957199,25.683664 78.1957199,44.4342508 C78.1957199,63.1848376 63.0008334,78.3864502 44.2557485,78.3864502 L44.2557485,78.3864502 Z"></path>
                            </g>
                            <g transform="translate(1.000000, 98.799035)" id="Shape">
                                <path d="M158.571287,17.2455466 C149.176612,22.4324003 136.255284,27.2282733 123.369274,29.2500675 C111.904474,31.0485788 90.3358064,26.7110482 90.3358064,21.5882588 C90.3358064,19.6470161 109.252303,26.3714132 120.69497,23.3175241 C129.469456,20.9758794 128.223896,12.7652846 123.451213,11.6823151 C118.706313,10.6049984 90.9074924,0.41783119 79.0334706,0.0664196141 C73.4399893,-0.0989228296 59.6305231,2.01237299 52.9482954,3.10099518 C50.6591968,3.4736045 49.22386,3.43262219 49.080703,5.62399839 C48.4157767,15.8083392 47.1052312,36.6348923 46.3908592,47.5135772 C46.37579,47.743455 46.6950677,50.8345579 49.245051,48.6591977 C52.0361407,46.278455 55.9508242,43.6395707 59.5716592,44.4611013 C65.252259,45.7503955 114.397006,54.7566125 121.17577,53.1804421 C130.873241,50.9254727 158.325,34.6517251 163.588373,29.5934711 C171.746436,21.751717 165.404677,13.4728183 158.571287,17.2455466 L158.571287,17.2455466 Z"></path>
                                <path d="M35.518936,2.70389068 L9.7732877,1.43485209 C7.78557221,1.33687138 5.75547472,2.83531672 5.26148904,4.76336977 L0.5801624,47.2789887 C0.0866476312,49.2075129 1.31007451,50.8486897 3.29873183,50.9254727 L31.8312317,50.9226463 C33.8203599,50.9994293 35.5712072,49.4383328 35.7237823,47.4532814 L38.8572244,6.4907508 C39.0088577,4.50617042 37.5066515,2.80187138 35.518936,2.70389068 L35.518936,2.70389068 Z M20.3621933,45.2901688 C16.4305571,45.2901688 13.2439021,42.1020273 13.2439021,38.1696093 C13.2439021,34.2367203 16.431028,31.0490498 20.3621933,31.0490498 C24.2933587,31.0490498 27.4804846,34.2371913 27.4804846,38.1696093 C27.4804846,42.1024984 24.2938296,45.2901688 20.3621933,45.2901688 L20.3621933,45.2901688 Z"></path>
                            </g>
                        </g>
                    </g>
                </g>
                <g id="males4-+-worker5-+-Oval-50-Copy-3" transform="translate(12.000000, 19.000000)">
                    <g id="worker5-+-Oval-50-Copy-2"></g>
                </g>
            </g>
        </g>
    </g>
</svg>