<?xml version="1.0" encoding="UTF-8" standalone="no"?>
<svg width="300px" height="300px" viewBox="0 0 300 300" version="1.1" xmlns="http://www.w3.org/2000/svg" xmlns:xlink="http://www.w3.org/1999/xlink" xmlns:sketch="http://www.bohemiancoding.com/sketch/ns">
    <!-- Generator: Sketch 3.3.3 (12081) - http://www.bohemiancoding.com/sketch -->
    <title>Artboard 6</title>
    <desc>Created with Sketch.</desc>
    <defs></defs>
    <g id="Page-1" stroke="none" stroke-width="1" fill="none" fill-rule="evenodd" sketch:type="MSPage">
        <g id="Artboard-6" sketch:type="MSArtboardGroup" transform="translate(-948.000000, -40.000000)" fill="#80BD01">
            <g id="factory6-+-Oval-50-Copy-2" sketch:type="MSLayerGroup" transform="translate(989.000000, 81.000000)">
                <g id="factory6" transform="translate(30.244792, 21.000000)" sketch:type="MSShapeGroup">
                    <path d="M90.2974496,8.8392511 C89.6295686,7.80977093 89.4151024,7.11410573 89.4151024,7.11410573 L89.7333741,6.82169163 C89.7333741,6.82169163 90.3522903,7.07857269 91.4340878,7.52126872 C91.9446283,7.72468722 92.5697467,7.97439648 93.2862662,8.25605286 C93.9920134,8.51130396 94.7601092,8.80893392 95.5833721,9.00844053 C95.9888014,9.13394714 96.4017386,9.25880176 96.8283859,9.30672247 C97.0431785,9.3350837 97.2478518,9.39408811 97.4606858,9.43320705 C97.6715612,9.44755066 97.8830895,9.45439648 98.0933121,9.48112775 C98.9436689,9.59522467 99.7254749,9.50296916 100.582687,9.45830837 C100.980282,9.31226432 101.422271,9.27118943 101.854795,9.08537445 C102.251084,8.85163877 102.769132,8.71602643 103.137022,8.41644053 C103.331902,8.28278414 103.53429,8.1435859 103.751368,8.00601762 C103.976606,7.87953304 104.216208,7.77945374 104.455483,7.52094273 L105.97013,6.25088106 C105.984493,6.23132159 105.881667,6.38095154 105.930958,6.31118943 L105.941404,6.30043172 L105.967192,6.27761233 L106.017136,6.23490749 L106.116698,6.14591189 L106.316475,5.96759471 L106.713743,5.61976211 L107.463559,4.9097533 C107.934927,4.42467841 108.528055,4.04652863 109.003341,3.57905727 C109.471446,3.09528634 110.100481,2.79928634 110.600902,2.33018502 C111.136252,1.90900441 111.762023,1.59344493 112.365597,1.18497797 C113.633787,0.589066079 115.115791,0.146696035 116.442739,0.332511013 C116.775374,0.368044053 117.098542,0.419876652 117.416488,0.478555066 C117.723987,0.563964758 118.01288,0.669585903 118.298835,0.776511013 C118.884455,0.969497797 119.388793,1.24561233 119.864079,1.51846696 C120.813671,2.06645815 121.568384,2.701163 122.171631,3.31500441 C122.771288,3.93047577 123.222091,4.52997357 123.546565,5.05253744 C123.886708,5.56401762 124.08322,6.01584141 124.221627,6.32455507 C124.336205,6.64207048 124.396595,6.81321586 124.396595,6.81321586 L124.07865,7.10921586 C124.07865,7.10921586 123.396732,6.87906608 122.349537,6.44191189 C121.839323,6.23881938 121.220406,5.98389427 120.510089,5.69832599 C119.824254,5.41634361 119.069869,5.106 118.273047,4.83673128 C117.876431,4.69036123 117.466106,4.53877533 117.051536,4.43869604 C116.840987,4.38718943 116.634029,4.30471366 116.422501,4.24440529 C116.211625,4.20170044 116.001403,4.14791189 115.789874,4.07847577 C114.934295,3.8000793 114.050315,3.52559471 112.955787,3.4114978 C112.453081,3.47767401 111.852771,3.45615859 111.329826,3.6739207 C110.826794,3.92884581 110.249008,4.12509251 109.845211,4.57822026 C109.438149,5.01504846 108.973636,5.39711013 108.688334,5.95357709 L108.273438,6.78289868 L108.082801,7.20049339 L107.990095,7.4074978 L107.944394,7.51442291 L107.921544,7.56234361 L107.910771,7.58744493 L107.90359,7.6034185 C107.94472,7.54278414 107.839609,7.69991189 107.846791,7.69078414 L107.030383,9.48895154 C106.762382,10.0688899 106.147709,10.7234802 105.645982,11.2995066 C105.136748,11.9273656 104.45483,12.2879119 103.847665,12.7801586 C103.212101,13.2261145 102.436171,13.4829956 101.725854,13.8057269 C100.214144,14.2370132 98.6348637,14.3142731 97.3059568,13.9592687 C96.6273035,13.8096388 96.002838,13.6130661 95.4524727,13.3278238 C94.8763192,13.0849604 94.3798153,12.7821145 93.911711,12.4893744 C92.9813781,11.8742291 92.243967,11.2228987 91.6612849,10.5842819 C91.0658719,9.96652863 90.6248615,9.35659912 90.2974496,8.8392511 L90.2974496,8.8392511 Z M155.550993,110.846784 L155.550993,147.879383 L0,147.879383 L0,110.846784 L10.5956746,110.846784 L10.5956746,69.2470485 L40.4544613,48.3259119 L40.4544613,69.2470485 L70.3086779,48.3259119 L70.3086779,69.2470485 L100.169097,48.3259119 L100.169097,89.4474185 L110.471309,89.4474185 L116.066363,16.7060705 L133.143029,16.7060705 L138.040171,89.4474185 L149.529291,89.4474185 L149.529291,110.849718 L155.550666,110.849718 L155.550666,110.846784 L155.550993,110.846784 Z M48.7608643,94.8552863 L25.2857929,94.8552863 L25.2857929,116.496863 L48.7608643,116.496863 L48.7608643,94.8552863 L48.7608643,94.8552863 Z M89.2117349,94.8552863 L65.7360106,94.8552863 L65.7360106,116.496863 L89.2117349,116.496863 L89.2117349,94.8552863 L89.2117349,94.8552863 Z M130.170861,94.8552863 L106.695789,94.8552863 L106.695789,116.496863 L130.170861,116.496863 L130.170861,94.8552863 L130.170861,94.8552863 Z" id="Shape"></path>
                </g>
            </g>
        </g>
    </g>
</svg>