<?xml version="1.0" encoding="UTF-8" standalone="no"?>
<svg width="300px" height="300px" viewBox="0 0 300 300" version="1.1" xmlns="http://www.w3.org/2000/svg" xmlns:xlink="http://www.w3.org/1999/xlink" xmlns:sketch="http://www.bohemiancoding.com/sketch/ns">
    <!-- Generator: Sketch 3.3.3 (12081) - http://www.bohemiancoding.com/sketch -->
    <title>Artboard 6</title>
    <desc>Created with Sketch.</desc>
    <defs></defs>
    <g id="Page-1" stroke="none" stroke-width="1" fill="none" fill-rule="evenodd" sketch:type="MSPage">
        <g id="Artboard-6" sketch:type="MSArtboardGroup" transform="translate(-948.000000, -428.000000)" fill="#80BD01">
            <g id="hand220-+-Oval-50-Copy-4" sketch:type="MSLayerGroup" transform="translate(989.000000, 469.000000)">
                <g id="hand220" transform="translate(17.428571, 27.000000)" sketch:type="MSShapeGroup">
                    <path d="M124.031629,86.2485533 C101.950021,77.1776095 97.8037113,69.8863225 87.6210928,68.5002604 C86.1588866,68.301071 84.9924124,68.5650621 84.0692784,69.0417249 C84.169299,63.146503 84.2974639,57.060355 84.3546186,56.350145 C84.5009691,56.6154408 84.6564124,56.8776923 84.8274433,57.1347249 C87.9817732,61.8787367 94.1081443,63.3304704 102.234062,57.8801627 C109.958165,52.6995 114.256021,37.3954083 114.256021,37.3954083 C114.256021,37.3954083 98.5350309,35.5183314 90.8113608,40.6989941 C88.8862887,41.9906805 87.3651959,43.3267278 86.1991546,44.6766923 C86.392268,43.8364438 86.5871134,43.0396864 86.771567,42.2738077 C87.3989691,39.69 87.9531959,37.3988876 88.1545361,35.0321006 C93.031299,33.4838166 96.0882062,28.4614615 94.415567,19.5505651 C92.692701,10.3835059 80.3568247,0.419689349 80.3568247,0.419689349 C80.3568247,0.419689349 72.4807423,14.2133343 74.2027423,23.3803935 C75.7095464,31.4036361 79.6454227,35.0882041 84.1394227,35.4922367 C83.917732,37.2818964 83.4721856,39.1293994 82.9370103,41.3357041 C82.7114227,42.2646746 82.4754433,43.2380059 82.2411959,44.2730947 C81.4613814,42.6278254 80.3156907,40.8977485 78.748701,39.1033047 C72.6244948,32.0894911 56.9580619,29.8122959 56.9580619,29.8122959 C56.9580619,29.8122959 57.161134,45.712216 63.2844742,52.7260296 C69.7277938,60.1051686 76.018701,60.2969645 80.2888454,56.5349822 C80.3204536,56.5075828 80.3503299,56.4780089 80.3815052,56.4506095 C80.3278144,57.1538609 80.1909897,63.8606272 80.0909691,69.8358728 C78.8950515,68.2258314 76.9526598,68.4502456 76.9526598,68.4502456 C71.3610309,68.6824882 58.6597113,86.5712574 58.6597113,86.5712574 C55.692433,91.664503 55.1910309,96.3815503 55.2836907,99.7138402 C55.2836907,99.7138402 25.9685567,83.265932 16.8723093,79.7640266 C7.83235052,76.2838669 -11.2204948,78.6945799 10.3090515,93.7398994 C23.7949485,103.163556 69.004701,137.336707 77.238,139.40645 C87.4686804,141.978515 125.232742,136.02284 133.268598,136.481672 C141.304021,136.940503 158.571216,142.722213 167.749732,146.763408 L167.749732,114.180728 C160.012206,109.83118 150.909031,97.2909497 124.031629,86.2485533 L124.031629,86.2485533 Z M88.7481649,110.775373 C67.8005567,108.060657 74.2014433,92.9557544 74.2014433,92.9557544 C78.6612371,83.3063787 80.6131546,77.5233639 80.8712165,73.9784024 L81.1821031,74.0040621 C81.898701,77.7199438 85.8830722,83.0723964 93.7041649,88.6170799 C109.020309,99.4763787 110.237876,113.559675 88.7481649,110.775373 L88.7481649,110.775373 Z" id="Shape"></path>
                </g>
            </g>
        </g>
    </g>
</svg>