<?xml version="1.0" encoding="UTF-8" standalone="no"?>
<svg width="300px" height="300px" viewBox="0 0 300 300" version="1.1" xmlns="http://www.w3.org/2000/svg" xmlns:xlink="http://www.w3.org/1999/xlink" xmlns:sketch="http://www.bohemiancoding.com/sketch/ns">
    <!-- Generator: Sketch 3.3.3 (12081) - http://www.bohemiancoding.com/sketch -->
    <title>Artboard 6</title>
    <desc>Created with Sketch.</desc>
    <defs></defs>
    <g id="Page-1" stroke="none" stroke-width="1" fill="none" fill-rule="evenodd" sketch:type="MSPage">
        <g id="Artboard-6" sketch:type="MSArtboardGroup" transform="translate(-498.000000, -428.000000)">
            <g id="money18-+-payment7-+-males4-+-worker5-+-Oval-50-Copy-4" sketch:type="MSLayerGroup" transform="translate(534.000000, 469.000000)">
                <g id="money18" transform="translate(34.290076, 17.000000)" fill="#3B7CCA" sketch:type="MSShapeGroup">
                    <g id="Layer_8_50_">
                        <path d="M95.7662934,37.759577 C98.4852407,37.063903 100.522715,35.4782152 98.0252655,32.8333376 C97.7227315,32.5166646 97.2376738,32.6254483 97.0181051,32.9614778 C96.2995868,34.0543481 94.6568734,34.4190253 92.7394097,34.3667627 C93.333673,34.1933281 93.804067,33.888269 94.0718714,33.3935158 C95.0435304,31.5949061 94.1158623,30.0719335 92.7100824,28.7967247 C92.203801,28.3306192 91.6272885,28.0391097 91.0183616,27.8730306 C94.8004227,21.1834103 98.8973661,13.1938049 101.639466,5.70514662 C108.069858,-11.79123 81.4476363,17.6794895 72.2678128,12.4799357 C63.0868315,7.28657595 66.7631601,-9.02827743 51.1564181,6.62496941 C40.1675646,17.6562616 57.245301,27.7599884 68.3128751,32.7795264 C66.0712678,33.0938766 63.8335194,33.2909262 61.6254842,33.2866677 C59.141541,33.2866677 56.6633861,33.2115643 54.186003,33.0067722 C52.1851881,32.8449515 47.1065527,32.6622257 46.1576609,30.3347954 C45.8504963,29.5775675 44.6152777,29.9101129 44.927073,30.6758576 C45.9801537,33.2615042 49.6263832,33.7334167 52.0323776,34.0524124 C54.6548535,34.3892162 57.3205487,34.5494884 59.9823849,34.5820074 C59.9503564,34.5862658 59.9133115,34.5924599 59.8808971,34.5967184 C53.3486321,35.4515032 46.7565548,36.4905622 40.4450161,38.4277648 C38.2022512,39.1172447 32.517776,40.6711878 32.961544,43.9877373 C33.0688201,44.7925823 34.3488013,44.8053576 34.2407535,43.9877373 C33.7433474,40.2496023 44.9050775,38.5233861 47.2061111,38.0224388 C53.6473072,36.6210253 60.2065842,35.7430127 66.7677907,35.0833418 C50.3259931,43.1914093 28.2471842,65.0708808 23.3151852,92.6709842 C27.1771245,91.4488122 31.2806279,90.7868186 35.5384855,90.7868186 C47.8462947,90.7868186 59.3645827,96.2980127 67.1417135,105.902728 L67.3365855,106.144297 C70.1531617,105.52334 73.0766282,105.186536 76.0753422,105.186536 C98.521128,105.186536 116.779673,123.504017 116.779673,146.022641 C116.779673,148.172379 116.612585,150.279919 116.291914,152.34139 C130.684275,143.357246 140.002632,127.496884 140.002632,103.888099 C140.004561,71.3741445 118.061198,48.9201709 95.7662934,37.759577 L95.7662934,37.759577 Z M88.2102749,32.7094557 C88.8836446,31.5732268 89.5975322,30.3657658 90.3156646,29.111462 C90.472334,29.1377869 90.6297752,29.1567563 90.7933905,29.1981793 C92.5711638,29.7366783 93.1627258,30.9677542 92.5495542,32.8991498 C91.8738692,33.1747869 90.9361681,33.0423882 90.2350146,32.9924483 C89.5531554,32.9487025 88.8836446,32.837596 88.2102749,32.7094557 L88.2102749,32.7094557 Z M93.6940898,36.7491656 C92.7698946,36.3171276 91.8495584,35.9052205 90.9265209,35.5099599 C93.5628888,35.8138576 96.1012418,35.5734494 97.5371207,34.2897236 C98.5971474,36.0964631 95.3051606,36.5900549 93.9179032,36.7425844 C93.8384108,36.7491656 93.7701091,36.74723 93.6940898,36.7491656 L93.6940898,36.7491656 Z M48.3537337,116.151242 L48.3537337,116.11098 C48.3602938,116.11911 48.3691691,116.121432 48.3780445,116.129562 C48.3691691,116.138466 48.362995,116.14737 48.3537337,116.151242 L48.3537337,116.151242 Z M37.3587061,161.033251 C38.2084253,163.565086 39.322476,165.964523 40.6557094,168.231561 C38.6251814,168.612498 36.5414012,168.833162 34.403597,168.833162 C15.5067977,168.833162 0.189469644,153.462908 0.189469644,134.507436 C0.189469644,115.551576 15.5067977,100.183257 34.403597,100.183257 C45.1300486,100.183257 54.6949856,105.143177 60.9675499,112.891213 C58.4442464,113.76729 56.048671,114.903906 53.8001178,116.272026 C48.9452958,111.073634 42.0614893,107.811283 34.4032112,107.811283 C19.7052289,107.811283 7.7921803,119.765108 7.7921803,134.509371 C7.7921803,149.253248 19.7052289,161.209396 34.4032112,161.209396 C35.4045833,161.20475 36.3885906,161.139325 37.3587061,161.033251 L37.3587061,161.033251 Z M40.7297994,129.452669 C37.3397977,135.159364 35.35519,141.795173 35.35519,148.905992 C35.35519,150.874552 35.5489044,152.799366 35.8417913,154.690887 L32.3734549,154.690887 L32.3734549,127.658318 C30.5547778,128.21114 28.342112,128.480196 25.7018853,128.480196 L23.799857,128.480196 L23.799857,121.069738 L25.7018853,121.069738 C31.8085189,121.069738 33.0545423,118.246006 33.45895,116.127627 L33.7526087,114.581426 L40.7301853,114.581426 L40.7301853,129.452669 L40.7297994,129.452669 Z M74.9454703,114.581813 C56.0494427,114.581813 40.7297994,129.950519 40.7297994,148.905992 C40.7297994,167.858754 56.0475133,183.229783 74.9454703,183.229783 C93.8418838,183.229783 109.158826,167.858754 109.158826,148.905992 C109.154967,129.950519 93.8384108,114.581813 74.9454703,114.581813 L74.9454703,114.581813 Z M74.9454703,175.605629 C60.2482598,175.605629 48.3344395,163.649868 48.3344395,148.905604 C48.3344395,134.163664 60.2482598,122.207516 74.9454703,122.207516 C89.641909,122.207516 101.555344,134.163664 101.555344,148.905604 C101.555344,163.650255 89.641909,175.605629 74.9454703,175.605629 L74.9454703,175.605629 Z M74.2890796,128.979982 L81.2697432,128.979982 L81.2697432,169.087507 L72.9130128,169.087507 L72.9130128,142.055325 C71.0916346,142.608922 68.8828276,142.881462 66.2402856,142.881462 L64.339415,142.881462 L64.339415,135.471004 L66.2402856,135.471004 C72.3488487,135.471004 73.5921708,132.647272 74.0019809,130.526957 L74.2890796,128.979982 L74.2890796,128.979982 Z" id="Shape"></path>
                    </g>
                </g>
                <g id="payment7-+-males4-+-worker5-+-Oval-50-Copy-4">
                    <g id="males4-+-worker5-+-Oval-50-Copy-3">
                        <g id="worker5-+-Oval-50-Copy-2"></g>
                    </g>
                </g>
            </g>
        </g>
    </g>
</svg>