<?xml version="1.0" encoding="UTF-8" standalone="no"?>
<svg width="300px" height="300px" viewBox="0 0 300 300" version="1.1" xmlns="http://www.w3.org/2000/svg" xmlns:xlink="http://www.w3.org/1999/xlink" xmlns:sketch="http://www.bohemiancoding.com/sketch/ns">
    <!-- Generator: Sketch 3.3.3 (12081) - http://www.bohemiancoding.com/sketch -->
    <title>Artboard 6</title>
    <desc>Created with Sketch.</desc>
    <defs></defs>
    <g id="Page-1" stroke="none" stroke-width="1" fill="none" fill-rule="evenodd" sketch:type="MSPage">
        <g id="Artboard-6" sketch:type="MSArtboardGroup" transform="translate(-37.000000, -816.000000)">
            <g id="males4-+-worker5-+-Oval-50-Copy-2" sketch:type="MSLayerGroup" transform="translate(78.000000, 857.000000)">
                <g id="males4" transform="translate(51.000000, 24.000000)" fill="#F7941E" sketch:type="MSShapeGroup">
                    <g id="Group">
                        <path d="M84.746464,36.78048 C90.337152,39.34672 96.270464,42.148256 96.364032,42.192288 C97.259808,42.616096 98.210624,42.816992 99.142176,42.816992 C101.57632,42.816992 103.90864,41.440992 105.019072,39.093536 C106.551936,35.847552 105.166304,31.97136 101.92032,30.438496 C101.676768,30.324288 99.323808,29.21248 96.238816,27.773184 C93.7056,32.06768 89.61888,35.332928 84.746464,36.78048 L84.746464,36.78048 Z" id="Shape"></path>
                        <path d="M16.129472,42.819744 C17.061024,42.819744 18.006336,42.618848 18.903488,42.192288 C18.99568,42.149632 24.794144,39.410016 30.331168,36.865792 C25.385824,35.492544 21.21792,32.261696 18.614528,27.9672 C15.738688,29.311552 13.578368,30.329792 13.349952,30.438496 C10.102592,31.972736 8.715584,35.848928 10.247072,39.093536 C11.356128,41.442368 13.693952,42.819744 16.129472,42.819744 L16.129472,42.819744 Z" id="Shape"></path>
                        <ellipse id="Oval" cx="79.439232" cy="18.014592" rx="18.014592" ry="18.014592"></ellipse>
                        <ellipse id="Oval" cx="35.993408" cy="18.014592" rx="18.014592" ry="18.014592"></ellipse>
                        <path d="M105.75936,47.861408 C105.744224,47.844896 105.729088,47.833888 105.712576,47.818752 L104.022848,45.797408 L102.488608,44.261792 C101.386432,44.841088 100.154912,45.176832 98.871104,45.176832 C97.715264,45.176832 96.592448,44.925024 95.539808,44.428288 C95.443488,44.381504 88.207104,40.96352 82.18848,38.221152 L79.435104,40.739232 L75.801088,37.31712 C75.048416,37.190528 74.308128,37.029536 73.585728,36.820384 C72.084512,37.501504 70.295712,38.430304 68.447744,39.521472 C68.583968,38.726144 68.578464,37.921184 68.418848,37.13824 C69.241696,36.659392 70.050784,36.219072 70.84336,35.799392 C66.602528,33.861984 63.166656,30.482528 61.148064,26.287104 C60.030752,26.966848 58.93408,27.660352 57.88832,28.368992 C56.359584,27.49248 54.884512,26.657248 53.72592,26.000896 C51.770624,30.233472 48.381536,33.658336 44.177856,35.661792 C47.617856,37.453344 55.990816,42.09184 58.31488,43.730656 C58.822624,44.088416 59.373024,44.33472 59.933056,44.530112 L59.933056,78.43888 C59.933056,81.353248 60.400896,84.125888 61.276032,86.657728 C61.249888,86.927424 61.236128,87.199872 61.236128,87.473696 L61.236128,95.089856 L61.284288,95.089856 C61.281536,95.201312 61.254016,95.303136 61.254016,95.415968 L61.258144,162.384512 C61.258144,166.947328 64.956832,170.648768 69.523776,170.648768 C74.086592,170.648768 77.789408,166.948704 77.789408,162.383136 L77.783904,95.413216 C77.783904,95.30176 77.755008,95.199936 77.752256,95.089856 L78.994784,95.089856 C78.98928,95.19856 78.96176,95.30176 78.96176,95.41184 L78.957632,162.38176 C78.957632,166.944576 82.65632,170.646016 87.221888,170.647392 C91.78608,170.647392 95.486144,166.948704 95.486144,162.383136 L95.4944,95.414592 C95.4944,95.30176 95.465504,95.199936 95.46,95.089856 L95.660896,95.089856 C96.27872,96.302112 97.252928,97.350624 98.540864,98.04688 C99.603136,98.6248 100.747968,98.898624 101.877664,98.898624 C104.359968,98.898624 106.761088,97.577664 108.028384,95.24672 C120.691712,71.952416 113.786944,56.621024 105.75936,47.861408 L105.75936,47.861408 Z M98.474816,82.792544 L98.87936,62.076864 C101.302496,66.643808 102.378528,73.150912 98.474816,82.792544 L98.474816,82.792544 Z" id="Shape"></path>
                        <path d="M41.49328,36.730944 C40.865824,36.923584 40.224608,37.085952 39.572384,37.218048 L35.833792,40.739232 L33.07904,38.219776 C27.057664,40.96352 19.824032,44.381504 19.723584,44.426912 C18.670944,44.923648 17.553632,45.175456 16.393664,45.175456 C15.112608,45.175456 13.881088,44.841088 12.781664,44.260416 L10.097088,47.181664 C10.015904,47.260096 9.923712,47.32064 9.848032,47.4032 C1.821824,56.16144 -5.08432,71.494208 7.587264,94.788512 C8.85456,97.119456 11.25568,98.441792 13.736608,98.441792 C14.864928,98.441792 16.012512,98.167968 17.072032,97.590048 C18.187968,96.981856 19.047968,96.09984 19.667168,95.089856 L19.78688,95.089856 C19.785504,95.15728 19.767616,95.2192 19.767616,95.289376 L19.770368,162.25792 C19.770368,166.822112 23.469056,170.522176 28.033248,170.522176 C32.598816,170.522176 36.300256,166.823488 36.300256,162.256544 L36.297504,95.288 C36.297504,95.2192 36.279616,95.15728 36.27824,95.089856 L37.496,95.089856 C37.494624,95.15728 37.473984,95.2192 37.473984,95.288 L37.46848,162.256544 C37.46848,166.822112 41.167168,170.522176 45.734112,170.522176 C50.301056,170.522176 53.999744,166.823488 53.999744,162.25792 L54.005248,95.289376 C54.005248,95.221952 53.98736,95.15728 53.985984,95.089856 L54.034144,95.089856 L54.034144,87.476448 C54.034144,87.199872 54.017632,86.9288 53.991488,86.657728 C54.869376,84.125888 55.337216,81.354624 55.337216,78.43888 L55.337216,43.56416 C53.742432,43.553152 52.208192,43.064672 50.899616,42.142752 C47.72656,39.905376 44.11456,37.90192 41.49328,36.730944 L41.49328,36.730944 Z M16.331744,62.427744 L16.331744,65.829216 L16.707392,81.217024 C13.531584,72.72848 14.291136,66.75664 16.331744,62.427744 L16.331744,62.427744 Z" id="Shape"></path>
                    </g>
                </g>
                <g id="worker5-+-Oval-50-Copy-2"></g>
            </g>
        </g>
    </g>
</svg>