<?xml version="1.0" encoding="UTF-8" standalone="no"?>
<svg width="300px" height="300px" viewBox="0 0 300 300" version="1.1" xmlns="http://www.w3.org/2000/svg" xmlns:xlink="http://www.w3.org/1999/xlink" xmlns:sketch="http://www.bohemiancoding.com/sketch/ns">
    <!-- Generator: Sketch 3.3.3 (12081) - http://www.bohemiancoding.com/sketch -->
    <title>Artboard 6</title>
    <desc>Created with Sketch.</desc>
    <defs></defs>
    <g id="Page-1" stroke="none" stroke-width="1" fill="none" fill-rule="evenodd" sketch:type="MSPage">
        <g id="Artboard-6" sketch:type="MSArtboardGroup" transform="translate(-948.000000, -868.000000)" fill="#80BD01">
            <g id="graduate33-+-Oval-50-Copy-3" sketch:type="MSLayerGroup" transform="translate(989.000000, 909.000000)">
                <g id="graduate33" transform="translate(52.408228, 35.000000)" sketch:type="MSShapeGroup">
                    <g id="Group">
                        <path d="M26.285,37.303171 L65.583,37.303171 C67.6170526,37.303171 69.2672105,35.6458361 69.2672105,33.6029368 C69.2672105,31.5592974 67.6170526,29.9027026 65.583,29.9027026 L26.285,29.9027026 C24.2502105,29.9027026 22.6007895,31.5592974 22.6007895,33.6029368 C22.6007895,35.6465761 24.2502105,37.303171 26.285,37.303171 L26.285,37.303171 Z" id="Shape"></path>
                        <path d="M26.285,55.5575363 L79.8291053,55.5575363 C81.8631579,55.5575363 83.5133158,53.9009415 83.5133158,51.8573021 C83.5133158,49.8140328 81.8631579,48.1570679 79.8291053,48.1570679 L26.285,48.1570679 C24.2502105,48.1570679 22.6007895,49.8140328 22.6007895,51.8573021 C22.6007895,53.9013115 24.2502105,55.5575363 26.285,55.5575363 L26.285,55.5575363 Z" id="Shape"></path>
                        <path d="M11.3359474,11.1007026 L94.7781579,11.1007026 L94.7781579,69.1103841 C96.2323158,69.5325808 97.4808947,70.1645808 98.5017895,70.7395972 C100.228947,69.7664356 102.604158,68.6252834 105.535684,68.6252834 C105.635158,68.6252834 105.732053,68.6337939 105.830789,68.6363841 L105.830789,11.1007026 C105.830789,4.97015457 100.882158,0 94.7781579,0 L11.3359474,0 C5.23194737,0 0.283315789,4.97015457 0.283315789,11.1007026 L0.283315789,134.796941 C0.283315789,140.927489 5.23194737,145.897644 11.3359474,145.897644 L78.2655263,145.897644 L78.2655263,134.796941 L11.3359474,134.796941 L11.3359474,11.1007026 L11.3359474,11.1007026 Z" id="Shape"></path>
                        <path d="M122.840789,96.5716721 C122.018474,95.8360656 121.084158,95.0020328 120.880053,94.3685527 C120.656421,93.6758689 120.916895,92.461082 121.167053,91.2855176 C121.561263,89.443171 122.008158,87.3554988 120.873421,85.7895597 C119.729474,84.2091897 117.600737,83.992726 115.723263,83.8014239 C114.597,83.6859766 113.321158,83.5568384 112.751579,83.139452 C112.194526,82.7324262 111.685,81.5653724 111.235526,80.5359672 C110.471421,78.7876066 109.606368,76.8065012 107.731842,76.1955925 C107.387,76.0831054 107.020053,76.0261218 106.641684,76.0261218 C105.206684,76.0261218 103.829526,76.8290726 102.498421,77.6061218 C101.447684,78.2188806 100.361211,78.8523607 99.6077895,78.8523607 C98.8536316,78.8523607 97.7678947,78.2188806 96.7164211,77.6061218 C95.3853158,76.8290726 94.0077895,76.0261218 92.5731579,76.0261218 C92.1947895,76.0261218 91.8285789,76.0831054 91.483,76.1955925 C89.6092105,76.8065012 88.7426842,78.7879766 87.9785789,80.5359672 C87.5287368,81.5653724 87.0192105,82.7331663 86.4632632,83.139452 C85.8918421,83.5568384 84.616,83.6867166 83.4915789,83.8014239 C81.6141053,83.992726 79.4857368,84.2095597 78.3410526,85.7895597 C77.2063158,87.3547588 77.6532105,89.4428009 78.0474211,91.2855176 C78.2986842,92.461082 78.5591579,93.6762389 78.3344211,94.3689227 C78.1299474,95.0020328 77.1967368,95.8360656 76.3736842,96.5716721 C74.9423684,97.8504731 73.3205789,99.2998548 73.3205789,101.311302 C73.3205789,103.322379 74.9423684,104.771761 76.3736842,106.050562 C77.1967368,106.785799 78.1303158,107.619831 78.3351579,108.253681 C78.5584211,108.945995 78.2990526,110.161522 78.0474211,111.336717 C77.6532105,113.179063 77.2063158,115.266735 78.3410526,116.832674 C79.4857368,118.413044 81.6144737,118.629508 83.4915789,118.82118 C84.6171053,118.936258 85.8929474,119.065396 86.4632632,119.482782 C87.0203158,119.890178 87.5298421,121.056862 87.9793158,122.086637 C88.7426842,123.834628 89.6092105,125.815363 91.483,126.426642 C91.8285789,126.539499 92.1955263,126.595742 92.5738947,126.595742 C94.0081579,126.595742 95.3853158,125.792792 96.7164211,125.016112 C97.7671579,124.403354 98.8536316,123.769504 99.6077895,123.769504 C100.361211,123.769504 101.447684,124.402984 102.498421,125.016112 C103.829526,125.792792 105.207053,126.595742 106.641684,126.595742 C107.020053,126.595742 107.387,126.538759 107.732579,126.426642 C109.605632,125.815363 110.471421,123.833888 111.234789,122.086267 C111.685368,121.056862 112.194526,119.889068 112.751579,119.482782 C113.322263,119.065396 114.598105,118.935518 115.723263,118.82081 C117.601474,118.629508 119.729105,118.412674 120.873421,116.832674 C122.008158,115.267105 121.561263,113.179063 121.167053,111.336717 C120.915789,110.161522 120.655316,108.945995 120.880789,108.253681 C121.085263,107.619831 122.018474,106.785799 122.840789,106.050192 C124.272842,104.771761 125.893895,103.322379 125.893895,101.311302 C125.893895,99.2998548 124.272105,97.8504731 122.840789,96.5716721 L122.840789,96.5716721 Z M99.6070526,110.92044 C94.3224211,110.92044 90.0387895,106.618178 90.0387895,101.310562 C90.0387895,96.0033162 94.3224211,91.7010539 99.6070526,91.7010539 C104.890947,91.7010539 109.174579,96.0033162 109.174579,101.310562 C109.174579,106.618178 104.890947,110.92044 99.6070526,110.92044 L99.6070526,110.92044 Z" id="Shape"></path>
                        <path d="M108.597632,129.104501 C107.972421,129.308754 107.314053,129.411991 106.640947,129.411991 C104.450684,129.411991 102.586842,128.324862 101.089579,127.451237 C100.665158,127.203321 100.004579,126.818496 99.6074211,126.644585 C99.2095263,126.818496 98.5496842,127.203691 98.1245263,127.451237 C96.628,128.324122 94.7634211,129.411991 92.5746316,129.411991 L92.5746316,129.411991 C91.9011579,129.411991 91.2427895,129.308754 90.6168421,129.104871 C88.7673684,128.501733 87.5851053,127.236623 86.7406842,125.874937 L86.7406842,156.286422 C86.7406842,156.88993 87.0962105,157.435714 87.6458947,157.67882 C88.1948421,157.921185 88.8358947,157.813878 89.2794737,157.406112 L99.6088947,147.866539 L109.937579,157.406112 C110.221632,157.669569 110.589684,157.807588 110.962895,157.807588 C111.168105,157.807588 111.375158,157.765405 111.570053,157.67882 C112.120474,157.436454 112.475263,156.88993 112.475263,156.286422 L112.475263,125.860136 C111.627526,127.217382 110.430895,128.507283 108.597632,129.104501 L108.597632,129.104501 Z" id="Shape"></path>
                    </g>
                </g>
            </g>
        </g>
    </g>
</svg>