<?xml version="1.0" encoding="UTF-8" standalone="no"?>
<svg width="300px" height="300px" viewBox="0 0 300 300" version="1.1" xmlns="http://www.w3.org/2000/svg" xmlns:xlink="http://www.w3.org/1999/xlink" xmlns:sketch="http://www.bohemiancoding.com/sketch/ns">
    <!-- Generator: Sketch 3.3.3 (12081) - http://www.bohemiancoding.com/sketch -->
    <title>Artboard 6</title>
    <desc>Created with Sketch.</desc>
    <defs></defs>
    <g id="Page-1" stroke="none" stroke-width="1" fill="none" fill-rule="evenodd" sketch:type="MSPage">
        <g id="Artboard-6" sketch:type="MSArtboardGroup" transform="translate(-37.000000, -40.000000)" fill="#F7941E">
            <g id="worker5-+-Oval-50-Copy" sketch:type="MSLayerGroup" transform="translate(78.000000, 81.000000)">
                <g id="worker5" transform="translate(26.941176, 26.000000)" sketch:type="MSShapeGroup">
                    <g id="iconos_7_">
                        <path d="M129.616262,84.7905475 L118.72244,101.712707 L111.509029,98.7965289 L86.3707749,144.73906 L115.903454,144.73906 L128.84424,127.550269 L139.955136,127.550269 L151.843736,144.73906 L161.853708,144.73906 L138.940026,87.3229545 L129.616262,84.7905475 Z" id="Shape"></path>
                        <path d="M138.459531,130.415217 L130.271075,130.415217 L119.48609,144.73906 L148.366946,144.73906 L138.459531,130.415217 Z" id="Shape"></path>
                        <path d="M11.4768743,117.23999 L2.98224115,144.73906 L14.7763561,144.73906 L24.211648,117.351436 L26.9050537,96.0373347 L35.8915444,96.0373347 L43.9774425,118.124969 L39.0367414,144.73906 L50.4822205,144.73906 L56.1091301,114.595837 L50.4822205,98.7075517 L48.4379471,91.5198657 L79.4031425,109.098419 L73.593244,119.205279 L87.0856875,126.994535 L101.358525,102.171374 L87.8660815,94.3818182 L82.259205,104.133667 L46.2047048,83.6673967 L44.2605969,76.8263326 L47.7974859,62.4707335 L49.3214966,75.5917355 L51.7691231,81.9600517 L61.4274702,87.6180475 L57.4217468,73.3571178 L54.3252871,45.9581095 L44.3180052,45.5455785 L42.5595773,40.6982645 C49.2643873,39.3258574 54.310935,33.536343 54.6825939,26.5059401 L24.5581908,22.5037603 C24.3381257,23.534938 24.212246,24.603564 24.212246,25.7009504 C24.212246,30.9979442 26.8999707,35.6646074 30.9828364,38.4121178 L30.7170241,38.3833574 L24.6870605,43.4625517 L16.9614592,42.8124483 L0,57.6695558 L0,80.2814669 L13.4727095,83.6161674 L11.4768743,117.23999 L11.4768743,117.23999 Z M8.57775559,72.0679959 L8.57775559,65.3156095 L14.2961596,60.0815289 L14.2961596,73.3571178 L8.57775559,72.0679959 L8.57775559,72.0679959 Z" id="Shape"></path>
                        <path d="M54.5507342,23.5984504 L59.1284475,24.2057128 C59.7375136,10.5721178 53.8247585,1.65102273 43.1196071,0.230082645 C42.2417387,0.112644628 41.3725412,0.0554235537 40.5120149,0.0554235537 C31.0309757,0.0554235537 24.1315156,7.00823347 21.4297379,19.1978202 L25.4184182,19.7277893 L54.5507342,23.5984504 L54.5507342,23.5984504 Z" id="Shape"></path>
                    </g>
                </g>
            </g>
        </g>
    </g>
</svg>