<?xml version="1.0" encoding="iso-8859-1"?>
<!-- Generator: Adobe Illustrator 18.1.1, SVG Export Plug-In . SVG Version: 6.00 Build 0)  -->
<svg version="1.1" id="Capa_1" xmlns="http://www.w3.org/2000/svg" xmlns:xlink="http://www.w3.org/1999/xlink" x="0px" y="0px"
	 viewBox="0 0 155.139 155.139" style="enable-background:new 0 0 155.139 155.139;" xml:space="preserve">
<g>
	<g>
		<path style="fill:#010002;" d="M106.628,32.388c-2.596-0.865-5.645-1.277-9.064-1.277c-5.388,0-9.535,1.164-12.328,3.455
			c-1.659,1.313-3.21,3.544-4.714,6.647h34.232C114.391,36.947,111.706,33.999,106.628,32.388z"/>
		<path style="fill:#010002;" d="M41.726,51.816c3.264,1.396,6.683,2.082,10.257,2.082c4.296,0,7.614-0.806,10.048-2.47
			c2.434-1.641,4.141-3.873,5.078-6.647H36.553C36.756,48.063,38.468,50.414,41.726,51.816z"/>
		<path style="fill:#010002;" d="M77.569,0C36.237,0,2.781,19.249,2.781,43.027s33.456,43.051,74.789,43.051
			s74.789-19.273,74.789-43.051S118.902,0,77.569,0z M136.975,44.781h-12.638c-0.829,7.238-5.287,12.184-13.419,14.78
			c-4.398,1.432-10.311,2.142-17.769,2.142v-6.641c5.955-0.215,10.257-0.746,13.008-1.611c4.917-1.581,7.667-4.469,8.288-8.67
			H78.966c-1.754,5.394-4.762,9.416-8.909,11.976c-4.195,2.602-9.947,3.873-17.298,3.873c-6.629,0-12.584-1.366-17.871-4.171
			c-5.281-2.769-7.978-6.677-8.079-11.683h-8.652v-3.574h8.545c0.627-4.947,3.162-8.759,7.614-11.438
			c4.505-2.655,10.412-4.028,17.763-4.177v6.558c-3.312,0.179-6.164,0.686-8.545,1.551c-4.35,1.581-6.683,4.081-6.886,7.506h31.696
			c2.852-5.782,5.49-9.714,7.924-11.802c4.093-3.365,10.144-5.036,18.127-5.036c11.552,0,19.738,2.148,24.601,6.468
			c2.691,2.411,4.451,5.871,5.34,10.37h12.638V44.781z"/>
		<path style="fill:#010002;" d="M77.569,91.836c-37.931,0-69.15-16.254-74.043-37.293c-0.442,1.886-0.746,3.801-0.746,5.758
			c0,23.778,33.456,43.051,74.789,43.051s74.789-19.273,74.789-43.051c0-1.957-0.31-3.867-0.746-5.758
			C146.719,75.582,115.501,91.836,77.569,91.836z"/>
		<path style="fill:#010002;" d="M77.569,109.098c-37.931,0-69.15-16.254-74.043-37.299c-0.442,1.886-0.746,3.801-0.746,5.752
			c0,23.778,33.456,43.057,74.789,43.057s74.789-19.273,74.789-43.057c0-1.957-0.31-3.867-0.746-5.752
			C146.719,92.85,115.501,109.098,77.569,109.098z"/>
		<path style="fill:#010002;" d="M77.569,126.366c-37.931,0-69.15-16.254-74.043-37.299c-0.442,1.886-0.746,3.807-0.746,5.752
			c0,23.778,33.456,43.051,74.789,43.051s74.789-19.267,74.789-43.051c0-1.957-0.31-3.861-0.746-5.752
			C146.719,110.113,115.501,126.366,77.569,126.366z"/>
		<path style="fill:#010002;" d="M77.569,143.623c-37.931,0-69.15-16.248-74.043-37.293c-0.442,1.88-0.746,3.801-0.746,5.758
			c0,23.778,33.456,43.051,74.789,43.051s74.789-19.273,74.789-43.051c0-1.957-0.31-3.867-0.746-5.758
			C146.719,127.381,115.501,143.623,77.569,143.623z"/>
	</g>
</g>
<g>
</g>
<g>
</g>
<g>
</g>
<g>
</g>
<g>
</g>
<g>
</g>
<g>
</g>
<g>
</g>
<g>
</g>
<g>
</g>
<g>
</g>
<g>
</g>
<g>
</g>
<g>
</g>
<g>
</g>
</svg>
